<svg width="250" height="250" viewBox="0 0 250 250" fill="none" xmlns="http://www.w3.org/2000/svg">
<g filter="url(#filter0_i_5219_24543)">
<circle cx="125" cy="125" r="125" fill="url(#paint0_linear_5219_24543)"/>
</g>
<path d="M215.621 125C215.621 175.051 175.047 215.625 124.996 215.625C74.9452 215.625 34.371 175.051 34.371 125C34.371 74.9495 74.9452 34.3753 124.996 34.3753C175.047 34.3753 215.621 74.9495 215.621 125ZM47.9678 125C47.9678 167.542 82.4545 202.028 124.996 202.028C167.537 202.028 202.024 167.542 202.024 125C202.024 82.4588 167.537 47.9721 124.996 47.9721C82.4545 47.9721 47.9678 82.4588 47.9678 125Z" fill="#FCE943"/>
<path d="M119.905 89.2349L121.438 89.9739C120.9 90.9044 120.309 92.4372 119.663 94.572C119.072 96.7069 118.426 99.2523 117.727 102.208C117.028 105.109 116.301 108.312 115.548 111.815C114.849 115.318 114.123 118.877 113.37 122.489C112.671 126.047 111.971 129.578 111.272 133.082C110.573 136.53 109.927 139.705 109.336 142.606C111.165 139.048 113.02 135.408 114.903 131.686C116.786 127.909 118.614 124.186 120.389 120.519C122.218 116.851 123.966 113.348 125.634 110.009C127.355 106.615 128.969 103.522 130.475 100.73C131.981 97.8838 133.352 95.4478 134.59 93.4225C135.827 91.3424 136.876 89.7823 137.736 88.7422C138.866 88.7422 140.049 88.7696 141.286 88.8243C142.577 88.8243 143.814 88.9338 144.998 89.1528C146.235 89.3717 147.391 89.7002 148.467 90.1381C149.543 90.576 150.43 91.2055 151.13 92.0266C150.807 93.2309 150.403 94.9826 149.919 97.2816C149.489 99.526 149.005 102.099 148.467 105C147.929 107.901 147.391 111.021 146.853 114.36C146.315 117.645 145.805 120.929 145.32 124.214C144.89 127.443 144.487 130.563 144.11 133.574C143.787 136.53 143.545 139.13 143.384 141.375C144.998 137.981 146.558 134.067 148.064 129.633C149.57 125.144 151.13 120.546 152.743 115.838C154.411 111.076 156.213 106.396 158.149 101.798C160.085 97.1995 162.264 93.0667 164.684 89.3991C166.298 88.8517 167.965 88.3864 169.687 88.0032C171.462 87.62 173.21 87.4558 174.931 87.5106C176.652 87.5106 178.32 87.7569 179.933 88.2496C181.601 88.6875 183.08 89.4538 184.371 90.5486C182.112 93.4498 179.88 96.7342 177.674 100.402C175.469 104.069 173.291 107.956 171.139 112.061C169.041 116.112 166.997 120.327 165.007 124.706C163.071 129.031 161.215 133.355 159.44 137.68C157.665 142.004 156.024 146.246 154.518 150.407C153.012 154.512 151.667 158.399 150.484 162.066C149.032 162.121 147.311 162.231 145.32 162.395C143.33 162.559 141.394 162.532 139.511 162.313C137.682 162.148 136.096 161.656 134.751 160.835C133.46 160.068 132.761 158.727 132.653 156.811C132.438 153.253 132.223 150.051 132.008 147.204C131.846 144.303 131.712 141.457 131.604 138.665C131.497 135.873 131.443 132.972 131.443 129.961C131.497 126.951 131.658 123.557 131.927 119.78C129.076 127.279 126.199 134.313 123.294 140.882C120.389 147.451 117.673 154.02 115.145 160.588C113.585 160.424 112.052 160.315 110.546 160.26C109.094 160.26 107.668 160.123 106.27 159.849C104.871 159.63 103.527 159.247 102.236 158.7C100.999 158.152 99.8421 157.277 98.7663 156.072C98.1746 152.459 97.9326 148.162 98.0401 143.181C98.2015 138.2 98.5511 133.054 99.089 127.744C99.6807 122.38 100.38 117.152 101.187 112.061C101.994 106.971 102.774 102.482 103.527 98.5954C99.0621 99.2523 95.4852 100.21 92.7958 101.469C90.1063 102.674 88.0086 104.151 86.5025 105.903C85.0502 107.655 84.0013 109.68 83.3558 111.979C82.7642 114.224 82.3607 116.714 82.1456 119.451C81.016 119.451 79.9403 119.451 78.9183 119.451C77.9501 119.397 77.0895 119.314 76.3364 119.205C74.8841 118.931 73.5932 118.493 72.4636 117.891C71.3341 117.234 70.4466 116.386 69.8011 115.346C69.1556 114.306 68.806 113.074 68.7522 111.651C68.6984 110.228 68.9943 108.558 69.6397 106.642C70.5003 104.179 71.8988 101.935 73.8352 99.9092C75.7716 97.829 78.0577 95.9952 80.6933 94.4078C83.3289 92.8203 86.2604 91.5066 89.4878 90.4665C92.7151 89.3717 96.05 88.6054 99.4924 88.1674C102.935 87.6748 106.377 87.5106 109.82 87.6748C113.316 87.839 116.678 88.359 119.905 89.2349Z" fill="#FCE943"/>
<path d="M115.621 0.34668C87.7612 2.41239 62.4427 13.6098 42.6482 30.9566L55.9435 44.2519C72.2892 30.2607 92.9331 21.1461 115.621 19.1626V0.34668Z" fill="#FCE943"/>
<path d="M134.371 19.1626V0.34668C162.231 2.41239 187.55 13.6098 207.344 30.9566L194.049 44.2519C177.703 30.2607 157.059 21.1461 134.371 19.1626Z" fill="#FCE943"/>
<path d="M230.959 117.188C229.322 94.6683 220.667 74.0957 207.17 57.6479L220.486 44.3318C237.325 64.245 248.048 89.4968 249.756 117.188H230.959Z" fill="#FCE943"/>
<path d="M205.745 194.053C219.414 178.083 228.428 158.011 230.686 135.938H249.524C247.163 163.182 236.062 187.925 219.04 207.348L205.745 194.053Z" fill="#FCE943"/>
<path d="M134.371 230.838C156.28 228.923 176.282 220.358 192.349 207.174L205.665 220.49C186.127 237.012 161.449 247.646 134.371 249.654V230.838Z" fill="#FCE943"/>
<path d="M57.6436 207.174C73.7103 220.358 93.7127 228.923 115.621 230.838V249.654C88.5429 247.646 63.8656 237.012 44.3275 220.49L57.6436 207.174Z" fill="#FCE943"/>
<path d="M19.3065 135.938C21.5638 158.011 30.5783 178.083 44.2477 194.053L30.9524 207.348C13.9304 187.925 2.82968 163.182 0.468066 135.938H19.3065Z" fill="#FCE943"/>
<path d="M42.8228 57.6479C29.3257 74.0957 20.6699 94.6683 19.0333 117.188H0.236328C1.94395 89.4968 12.6671 64.245 29.5067 44.3318L42.8228 57.6479Z" fill="#FCE943"/>
<defs>
<filter id="filter0_i_5219_24543" x="0" y="0" width="250" height="261.965" filterUnits="userSpaceOnUse" color-interpolation-filters="sRGB">
<feFlood flood-opacity="0" result="BackgroundImageFix"/>
<feBlend mode="normal" in="SourceGraphic" in2="BackgroundImageFix" result="shape"/>
<feColorMatrix in="SourceAlpha" type="matrix" values="0 0 0 0 0 0 0 0 0 0 0 0 0 0 0 0 0 0 127 0" result="hardAlpha"/>
<feOffset dy="11.9651"/>
<feGaussianBlur stdDeviation="23.9303"/>
<feComposite in2="hardAlpha" operator="arithmetic" k2="-1" k3="1"/>
<feColorMatrix type="matrix" values="0 0 0 0 0.796078 0 0 0 0 0.423529 0 0 0 0 0.0352941 0 0 0 1 0"/>
<feBlend mode="normal" in2="shape" result="effect1_innerShadow_5219_24543"/>
</filter>
<linearGradient id="paint0_linear_5219_24543" x1="40.625" y1="237.5" x2="249.187" y2="53.9006" gradientUnits="userSpaceOnUse">
<stop stop-color="#D27200"/>
<stop offset="0.687629" stop-color="#F1BC00"/>
<stop offset="0.843546" stop-color="#FFE145"/>
<stop offset="1" stop-color="#EDB900"/>
</linearGradient>
</defs>
</svg>
