<svg width="250" height="250" viewBox="0 0 250 250" fill="none" xmlns="http://www.w3.org/2000/svg">
<circle cx="125.104" cy="125" r="125" fill="url(#paint0_linear_5219_24547)"/>
<path d="M151.385 120.422C153.439 119.848 155.484 121.434 155.422 123.659C155.236 130.379 154.288 136.433 152.58 141.822C150.499 148.279 147.779 153.794 144.421 158.367C141.141 162.933 137.453 166.451 133.356 168.922C129.339 171.386 125.431 172.796 121.632 173.152C118.703 173.426 115.837 173.026 113.033 171.953C110.307 170.872 107.842 169.099 105.637 166.634C103.504 164.078 101.71 160.823 100.254 156.868C98.7993 152.913 97.838 148.202 97.3705 142.735C96.4568 132.049 97.1242 122.593 99.3726 114.367C101.621 106.141 104.735 99.1695 108.713 93.453C112.771 87.7291 117.223 83.3461 122.069 80.3038C126.994 77.2541 131.672 75.5217 136.105 75.1066C139.27 74.81 142.051 75.1341 144.445 76.0788C146.918 77.0161 148.992 78.4083 150.666 80.2555C152.333 82.0198 153.596 84.1976 154.456 86.789C155.081 88.4688 155.553 90.2383 155.87 92.0976C156.145 93.7065 155.138 95.2127 153.636 95.6594L143.26 98.7444C141.574 99.2457 139.846 98.2399 139.124 96.5687C138.409 94.9138 137.628 93.6669 136.782 92.8279C135.475 91.531 134.069 90.9529 132.565 91.0938C130.587 91.2791 128.538 92.9739 126.418 96.1783C124.292 99.2999 122.398 103.276 120.737 108.108C119.076 112.939 117.77 118.197 116.82 123.88C115.87 129.563 115.546 135.104 115.848 140.503C116.287 145.639 117.315 149.258 118.931 151.361C120.619 153.374 122.61 154.273 124.905 154.058C126.488 153.91 128.075 153.344 129.667 152.36C131.337 151.368 132.781 150.064 133.999 148.447C135.21 146.747 136.166 144.863 136.866 142.793C137.19 141.888 137.435 140.96 137.601 140.011C137.967 137.919 136.014 136.401 134.039 136.902L129.763 137.986C127.584 138.538 125.538 136.672 125.763 134.339L126.271 129.058C126.412 127.594 127.435 126.392 128.808 126.074C131.688 125.408 134.52 124.747 137.301 124.091C140.274 123.395 143.397 122.601 146.671 121.71C148.351 121.26 149.922 120.831 151.385 120.422Z" fill="#9EDCFF"/>
<path d="M215.725 125C215.725 175.051 175.15 215.625 125.1 215.625C75.0487 215.625 34.4745 175.051 34.4745 125C34.4745 74.9495 75.0487 34.3753 125.1 34.3753C175.15 34.3753 215.725 74.9495 215.725 125ZM48.0713 125C48.0713 167.542 82.558 202.028 125.1 202.028C167.641 202.028 202.128 167.542 202.128 125C202.128 82.4588 167.641 47.9721 125.1 47.9721C82.558 47.9721 48.0713 82.4588 48.0713 125Z" fill="#9EDCFF"/>
<path d="M115.725 0.34668C87.8647 2.41239 62.5462 13.6098 42.7517 30.9566L56.0471 44.2519C72.3927 30.2607 93.0366 21.1461 115.725 19.1626V0.34668Z" fill="#9EDCFF"/>
<path d="M134.475 19.1626V0.34668C162.335 2.41239 187.653 13.6098 207.448 30.9566L194.152 44.2519C177.807 30.2607 157.163 21.1461 134.475 19.1626Z" fill="#9EDCFF"/>
<path d="M231.063 117.188C229.426 94.6683 220.77 74.0957 207.273 57.6479L220.589 44.3318C237.429 64.245 248.152 89.4968 249.859 117.188H231.063Z" fill="#9EDCFF"/>
<path d="M205.848 194.053C219.518 178.083 228.532 158.011 230.789 135.938H249.628C247.266 163.182 236.165 187.925 219.143 207.348L205.848 194.053Z" fill="#9EDCFF"/>
<path d="M134.475 230.838C156.383 228.923 176.386 220.358 192.452 207.174L205.768 220.49C186.23 237.012 161.553 247.646 134.475 249.654V230.838Z" fill="#9EDCFF"/>
<path d="M57.7472 207.174C73.8138 220.358 93.8162 228.923 115.725 230.838V249.654C88.6465 247.646 63.9691 237.012 44.431 220.49L57.7472 207.174Z" fill="#9EDCFF"/>
<path d="M19.41 135.938C21.6673 158.011 30.6818 178.083 44.3512 194.053L31.0559 207.348C14.034 187.925 2.9332 163.182 0.571582 135.938H19.41Z" fill="#9EDCFF"/>
<path d="M42.9263 57.6479C29.4292 74.0957 20.7735 94.6683 19.1368 117.188H0.339844C2.04747 89.4968 12.7706 64.245 29.6102 44.3318L42.9263 57.6479Z" fill="#9EDCFF"/>
<defs>
<linearGradient id="paint0_linear_5219_24547" x1="61.9445" y1="-8.95334" x2="235.922" y2="242.842" gradientUnits="userSpaceOnUse">
<stop stop-color="#3C83C4"/>
<stop offset="0.275" stop-color="#398BD8"/>
<stop offset="0.53" stop-color="#4198FF"/>
<stop offset="0.73" stop-color="#369DE8"/>
<stop offset="1" stop-color="#3377DD"/>
</linearGradient>
</defs>
</svg>
